# xmcd
#
# Track frame offsets:
#	150
#	19035
#	35648
#	44081
#	53603
#	69918
#	83016
#	99466
#	113412
#	125436
#	143408
#	159707
#	170487
#	180617
#	188037
#
# Disc length: 2554 seconds
#
# Revision: 2
# Processed by: cddbd v1.5.1PL2 Copyright (c) Steve Scherf et al.
# Submitted via: EasyCDDAExtractor 9.0.0.1
#
DISCID=bc09f80f
DTITLE=Elvis Presley - The Original Elvis Presley Collection 46 - Recorded Liv
DTITLE=e On Stage In Memphis
DYEAR=1974
DGENRE=
TTITLE0=See See Rider
TTITLE1=I Got A Woman
TTITLE2=Love Me
TTITLE3=Trying To Get To You
TTITLE4=Medley: Long Tall Sally/Whole Lotta Shakin  Goin  On/Mama Don t Dance/
TTITLE4=Flip, Flop And Fly/Jailhouse Rock/Hound Dog
TTITLE5=Why Me Lord
TTITLE6=How Great Thou Art
TTITLE7=Medley: Blueberry Hill/I Can t Stop Loving You
TTITLE8=Help Me
TTITLE9=An American Trilogy
TTITLE10=Let Me Be There
TTITLE11=My Baby Left Me
TTITLE12=Lawdy, Miss Claudy
TTITLE13=Can t Help Falling In Love
TTITLE14=Closing-Vamp
EXTD=
EXTT0=
EXTT1=
EXTT2=
EXTT3=
EXTT4=
EXTT5=
EXTT6=
EXTT7=
EXTT8=
EXTT9=
EXTT10=
EXTT11=
EXTT12=
EXTT13=
EXTT14=
PLAYORDER=
